<svg viewBox="0 0 32 32" xmlns="http://www.w3.org/2000/svg">
  <!-- Open Book Icon - Hand-drawn style -->
  <rect width="32" height="32" fill="transparent"/>

  <!-- Book shadow/background -->
  <ellipse cx="16" cy="26" rx="10" ry="2" fill="#000000" opacity="0.1"/>

  <!-- Left page -->
  <path d="M 4,8 Q 4,6 6,6 L 14,6 L 14,24 Q 14,25 13,25 L 6,25 Q 4,25 4,23 Z"
        fill="#F8F6F3"
        stroke="#D4B896"
        stroke-width="1.5"
        stroke-linecap="round"
        stroke-linejoin="round">
    <!-- Page flutter animation -->
    <animate attributeName="d"
             values="M 4,8 Q 4,6 6,6 L 14,6 L 14,24 Q 14,25 13,25 L 6,25 Q 4,25 4,23 Z;
                     M 4,8 Q 4,6 6,6 L 14,6.2 L 14,24.2 Q 14,25.2 13,25.2 L 6,25 Q 4,25 4,23 Z;
                     M 4,8 Q 4,6 6,6 L 14,6 L 14,24 Q 14,25 13,25 L 6,25 Q 4,25 4,23 Z"
             dur="4s"
             repeatCount="indefinite"/>
  </path>

  <!-- Right page -->
  <path d="M 28,8 Q 28,6 26,6 L 18,6 L 18,24 Q 18,25 19,25 L 26,25 Q 28,25 28,23 Z"
        fill="#F8F6F3"
        stroke="#D4B896"
        stroke-width="1.5"
        stroke-linecap="round"
        stroke-linejoin="round">
    <!-- Page flutter animation (offset) -->
    <animate attributeName="d"
             values="M 28,8 Q 28,6 26,6 L 18,6 L 18,24 Q 18,25 19,25 L 26,25 Q 28,25 28,23 Z;
                     M 28,8 Q 28,6 26,6 L 18,5.8 L 18,23.8 Q 18,24.8 19,24.8 L 26,25 Q 28,25 28,23 Z;
                     M 28,8 Q 28,6 26,6 L 18,6 L 18,24 Q 18,25 19,25 L 26,25 Q 28,25 28,23 Z"
             dur="4s"
             begin="0.5s"
             repeatCount="indefinite"/>
  </path>

  <!-- Book spine/center -->
  <path d="M 14,6 L 14,25 L 18,25 L 18,6 Z"
        fill="#E8DCC4"
        stroke="#D4B896"
        stroke-width="1.5"
        stroke-linecap="round"
        stroke-linejoin="round"/>

  <!-- Text lines on left page (hand-drawn style) -->
  <path d="M 7,10 L 11.5,10.1" stroke="#9333EA" stroke-width="0.8" opacity="0.3"/>
  <path d="M 7,12.5 L 12,12.4" stroke="#9333EA" stroke-width="0.8" opacity="0.3"/>
  <path d="M 7,15 L 11,15.1" stroke="#9333EA" stroke-width="0.8" opacity="0.3"/>
  <path d="M 7,17.5 L 11.8,17.6" stroke="#9333EA" stroke-width="0.8" opacity="0.3"/>
  <path d="M 7,20 L 10.5,20" stroke="#9333EA" stroke-width="0.8" opacity="0.3"/>

  <!-- Text lines on right page (hand-drawn style) -->
  <path d="M 20.5,10 L 25,10.1" stroke="#9333EA" stroke-width="0.8" opacity="0.3"/>
  <path d="M 20,12.5 L 24.5,12.6" stroke="#9333EA" stroke-width="0.8" opacity="0.3"/>
  <path d="M 20.5,15 L 25,14.9" stroke="#9333EA" stroke-width="0.8" opacity="0.3"/>
  <path d="M 20,17.5 L 24,17.4" stroke="#9333EA" stroke-width="0.8" opacity="0.3"/>
  <path d="M 20.5,20 L 24.8,20.1" stroke="#9333EA" stroke-width="0.8" opacity="0.3"/>

  <!-- Sacred sparkle on left page -->
  <circle cx="9" cy="11" r="0.8" fill="#FFD700" opacity="0.6">
    <animate attributeName="opacity"
             values="0.6;1;0.6"
             dur="3s"
             repeatCount="indefinite"/>
  </circle>

  <!-- Sacred sparkle on right page -->
  <circle cx="23" cy="16" r="0.8" fill="#FFD700" opacity="0.6">
    <animate attributeName="opacity"
             values="0.6;1;0.6"
             dur="3s"
             begin="1.5s"
             repeatCount="indefinite"/>
  </circle>

  <!-- Bookmark ribbon -->
  <path d="M 16,4 L 16,20 L 14,18 L 16,20 L 18,18 L 16,20"
        stroke="#9333EA"
        stroke-width="1"
        fill="none"
        opacity="0.4"/>

  <!-- Hand-drawn texture details -->
  <path d="M 4.5,7 L 4.3,7.2" stroke="#D4B896" stroke-width="0.5" opacity="0.2"/>
  <path d="M 27.5,7 L 27.7,7.2" stroke="#D4B896" stroke-width="0.5" opacity="0.2"/>
  <path d="M 4.5,24 L 4.3,23.8" stroke="#D4B896" stroke-width="0.5" opacity="0.2"/>
  <path d="M 27.5,24 L 27.7,23.8" stroke="#D4B896" stroke-width="0.5" opacity="0.2"/>
</svg>