<svg xmlns="http://www.w3.org/2000/svg" viewBox="0 0 24 24" fill="none" stroke="currentColor" stroke-width="2" stroke-linecap="round" stroke-linejoin="round">
  <path d="M12 3C16.97 3 21 7.03 21 12C21 13.41 20.71 14.75 20.18 15.97C19.65 17.19 18.88 18.28 17.93 19.19C17 20.08 15.92 20.8 14.73 21.31C13.54 21.82 12.28 22.09 11 22.09C9.72 22.09 8.46 21.82 7.27 21.31C6.08 20.8 5 20.08 4.07 19.19C3.12 18.28 2.35 17.19 1.82 15.97C1.29 14.75 1 13.41 1 12C1 7.03 5.03 3 10 3" />
  <path d="M12 8C14.21 8 16 9.79 16 12C16 14.21 14.21 16 12 16C9.79 16 8 14.21 8 12C8 9.79 9.79 8 12 8" />
</svg>